<?xml version="1.0" encoding="utf-8"?>
<!-- Generator: Adobe Illustrator 19.1.0, SVG Export Plug-In . SVG Version: 6.00 Build 0)  -->
<svg version="1.1" xmlns="http://www.w3.org/2000/svg" xmlns:xlink="http://www.w3.org/1999/xlink" x="0px" y="0px"
	 viewBox="0 0 800 600" style="enable-background:new 0 0 800 600;" xml:space="preserve">
<style type="text/css">
	.st0{fill:#8EC79A;stroke:#808080;stroke-width:0.5;stroke-linecap:round;stroke-linejoin:round;}
	.st1{fill:#FFEB64;stroke:#808080;stroke-width:0.5;stroke-linecap:round;stroke-linejoin:round;}
	.st2{fill:#F8A758;stroke:#808080;stroke-width:0.5;stroke-linecap:round;stroke-linejoin:round;}
	.st3{fill:#AC8FC7;stroke:#808080;stroke-width:0.5;stroke-linecap:round;stroke-linejoin:round;}
	.st4{fill:#E89BBD;stroke:#808080;stroke-width:0.5;stroke-linecap:round;stroke-linejoin:round;}
	.st5{fill:#FBD165;stroke:#808080;stroke-width:0.5;stroke-linecap:round;stroke-linejoin:round;}
	.st6{fill:#89B8E4;stroke:#808080;stroke-width:0.5;stroke-linecap:round;stroke-linejoin:round;}
	.st7{font-family:'Roboto-Regular';}
	.st8{font-size:14px;}
</style>
<g id="Kenya">
	<path class="st0" d="M289.988,52.919l0.11,0.962l0.74,1.312l0.058,1.074l-0.168,1.118l-0.017,0.949l0.376,0.788l1,0.624
		l2.168,1.889l1.191,0.77l1.283,0.304l0.223-0.002l0.009,65.476l0.439,1.39l0.358,0.191l0.292,0.246l0.419,0.246l1.911,0.794
		l1.341-0.203l0.691,0.013l0.295,0.362l-0.121,0.597l-0.52,1.132l-0.121,0.552l0.098,0.638l0.486,1.166l0.179,0.647l0.003,0.648
		l-1.532,6.035l0.338,1.136l0.853,0.302l2.246-0.073l0.431,0.233l0.726,0.746l0.581,0.16l0.564-0.233l0.925-0.819l0.422,0.086
		l0.225,0.44l0.364,1.666l0.191,0.233l2.307,2.004l3.087,2.007l1.289,1.11l1.093,1.83l0.569,1.235l0.402,1.526l0.76,1.252
		l0.266,0.614l0.052,0.379l-0.017,3.844l0.381,1.321l1.879,1.053l0.971,1.135l1.315,2.209l0.451,2.288l-0.003,2.562l0.338,2.322
		l1.471,1.562l0.353-0.355l0.419-0.233l0.532-0.129l0.676-0.043l0.199,0.069l1.379,0.207l0.33-0.069l0.451-0.25l3.078-3.236
		l0.642-1.066l0.329-1.229l-0.656-1.65l0.644-0.22l0.685,0.004l0.694,0.164l0.399,0.407l0.329,0.685l4.532,12.757l0.451,0.734
		l3.255,2.839l0.468,0.715l0.321,0.646l2.44,6.402l0.451,1.82l-0.182,1.518l0.078,0.224l0.226,0.078l0.303,0.009l1.616-0.172
		l2.596-0.047l5.526,0.491l0.619,0.159l1.032,0.475l0.295,0.198l0.642,0.728l0.121,0.246l0.199,0.531l0.121,0.25l0.147,0.228
		l0.173,0.211l0.835,0.643l0.728,0.457l0.85,0.672l0.381,0.383l0.662,0.85l1.327,2.414l0.928,2.433l0.148,0.263l0.373,0.389
		l0.662,0.483l2.263,1.169l0.208,0.159l0.174,0.168l0.133,0.233l0.104,0.327l0.538,3.822l0.191,0.551l0.286,0.47l1.431,1.587
		l2.344,1.837l0.373,0.385l0.624,0.883l3.786,8.905l0.165,0.211l0.182,0.189l0.234,0.151l0.277,0.112l0.321,0.052l0.338,0.009
		l0.312-0.052l0.295-0.077l0.775-0.349l0.581-0.172l1.63-0.215l0.584-0.159l0.266-0.103l0.48-0.284l0.208-0.161l0.468-0.271
		l0.278-0.086l0.303-0.022l0.963,0.138l0.662-0.047l0.295-0.077l1.006-0.513l0.858-0.569l0.251-0.109l0.286-0.073l0.324-0.039h0.329
		l0.954,0.144l0.321-0.019l0.304-0.073l0.243-0.125l0.225-0.151l0.783-0.728l0.434-0.271l0.277-0.121l0.113-0.023l0.217-0.026h0.217
		l0.156,0.035l0.104,0.04l0.104,0.095l0.451,0.517l3.038,2.803l0.694,0.814l0.286,0.85l0.567,7.511l0.269,0.948l0.65,0.962
		l3.411,3.926l0.59,0.864l0.277,0.867l1.2,19.029l-0.078,0.178l-0.26-0.031l-0.913-0.256l-0.815-0.319l-0.286-0.052l-0.304,0.009
		l-0.494,0.098l-0.199,0.123l-0.251,0.198l-0.385,0.488l-0.962,0.976l-0.858,0.701l-2.214,1.246l-0.373,0.034l-0.312-0.063
		l-0.217-0.144l-0.485-0.264l-0.356-0.014l-0.408,0.072l-1.052,0.614l-0.338,0.25l-0.251,0.261l-0.434,0.827l-0.234,0.31
		l-0.278,0.218l-0.523,0.23l-1.327,0.419l-0.338,0.035l-0.338-0.012l-0.642-0.098l-0.697-0.035l-0.338,0.035l-0.442,0.146
		l-1.327,0.749l-0.46,0.098l-0.376-0.029l-0.252-0.129l-0.269-0.103l-0.312,0.055l-0.295,0.201l-0.364,0.485l-0.356,0.35
		l-0.598,0.396l-0.74,0.359l-0.355,0.241l-1.145,1.079l-0.78,0.58l-1.113,0.448l-0.295,0.172l-0.269,0.241l-0.286,0.471l-0.182,0.21
		l-0.243,0.032l-0.65-0.445l-0.252-0.106l-0.373,0.02l-1.017,0.307l-0.39,0.012l-0.355-0.034l-0.494-0.189l-0.173-0.109
		l-0.529-0.414l-0.468-0.287l-0.254-0.092l-0.286-0.02l-0.321,0.034l-0.295,0.072l-0.867,0.316l-2.231,0.454l-0.312-0.017
		l-0.581-0.143l-0.529-0.233l-0.217-0.158l-0.373-0.402l-0.341-0.445l-0.382-0.359l-0.182-0.195l-0.104-0.287l-0.156-1.016
		l-0.121-0.267l-0.277-0.491l-0.494-0.649l-0.494-1.034l-1.728-2.498l-0.182-0.204l-0.199-0.187l-0.928-0.609l-0.757-0.758
		l-0.225-0.155l-0.251-0.115l-0.277-0.052l-0.286,0.011l-0.269,0.092l-0.234,0.143l-0.607,0.546l-0.243,0.155l-0.295,0.075
		l-0.67-0.023l-0.65-0.077l-0.26-0.078l-0.234-0.126l-0.208-0.149l-0.321-0.281l-0.278-0.33l-0.191-0.161l-0.974-0.123l-0.581-0.184
		l-0.243-0.121l-0.685-0.442l-0.269-0.103l-0.286-0.057l-0.477-0.02l-0.636,0.037l-0.312,0.075l-0.278,0.129l-0.529,0.327
		l-0.355,0.169l-1.257,0.385l-4.185,0.861l-0.347,0.012l-0.338-0.026l-0.633-0.106l-0.321,0.003l-0.286,0.155l-0.22,0.278
		l-0.225,1.016l-0.023,0.83l0.121,1.186l-0.029,0.442l-0.069,0.35l-0.165,0.212l-0.381,0.385l-0.165,0.23l-0.113,0.276l-0.121,0.626
		l-0.139,0.235l-0.538,0.609l-0.147,0.235l-0.347,0.414l-0.861,0.663l-0.139,0.238l-0.078,0.296l-0.009,0.316l0.087,0.284
		l0.243,0.164l0.653,0.189l25.282,3.224l0.59,0.167l0.26,0.356l0.139,0.339l0.061,0.31l0.078,0.755l-0.061,2.793l0.121,0.62
		l0.425,1.134l0.286,0.474l0.185,0.204l0.642,0.882l0.139,0.253l0.676,1.654l0.069,0.31l0.026,0.345l-0.113,1.361l-0.173,0.606
		l-0.191,0.336l-0.763,0.959l-0.243,0.385l-0.159,0.359l-0.069,0.302l-0.199,2.423l-0.069,0.324l-0.13,0.293l-5.795,5.975
		l-0.419,0.345l-1.986,1.306l-5.356,1.875l-1.659,0.835l-1.951,3.353l-0.702,0.97l-1.477,1.372l-0.303,0.477l-0.173,0.422
		l0.035,0.698l0.069,0.298l0.104,0.273l1.327,2.093l0.069,0.494l-0.208,2.214l-0.147,0.729l-0.156,0.54l-0.156,0.233l-0.173,0.192
		l-0.928,0.847l-0.451,0.551l-0.208,0.339l-0.671,0.856l-0.442,0.431l-0.338,0.132l-0.338,0.006l-0.278-0.103l-0.737-0.367
		l-0.234-0.017l-0.226,0.144l-0.277,0.276l-0.269,0.207l-0.35,0.155l-0.234-0.006l-0.165-0.029l-0.191-0.083l-0.685-0.439
		l-0.59-0.534l-2.24-2.742l-0.13-0.258l-0.295-0.85l-0.017-0.224l0.121-0.132l0.451-0.224l0.199-0.181l0.156-0.213l0.113-0.232
		l0.121-0.388l0.191-1.123v-0.683l0.113-0.324l-0.035-0.098l-0.217-0.115l-2.648-0.93l-0.494-0.063l-0.668,0.077l-4.018,0.988
		l-2.621,0.37l-0.997-0.29l-2.535-0.172l-0.939-0.155l-0.754-0.517l-1.708-1.522l-0.139-0.247l-0.095-0.279l-0.139-0.623
		l-0.017-0.322l0.061-0.316l0.113-0.279l0.147-0.238l0.286-0.345l0.434-0.327l4.922-2.98l0.182-0.141l0.069-0.146l0.017-0.23
		l-0.121-0.253l-0.286-0.238l-0.298-0.043l-0.278,0.06l-0.798,0.465l-0.373,0.169l-0.581,0.195l-0.356-0.04l-0.269-0.126
		l-1.286-1.404l-0.364-0.212l-0.52-0.227l-1.093-0.316l-0.489-0.276l-0.269-0.333l-0.225-0.904l-0.121-0.279l-0.173-0.224
		l-1.361-1.364l-0.269-0.204l-0.399-0.212l-0.263,0.057l-0.182,0.172l-0.182,0.569l-0.121,0.261l-0.208,0.172l-2.934,1.783
		l-0.512,0.161l-0.919,0.155l-1.252-0.08l-0.642,0.052l-0.338,0.149l-0.13,0.247l-0.156,0.551l-0.147,0.241l-0.191,0.146
		l-2.283,0.91l-0.529,0.322l-0.746,0.686l-0.277,0.531l-0.74,2.254l-0.13,0.261l-0.815,1.332l-0.251,1.074l-0.165,0.388
		l-0.191,0.686l-0.165,1.341l0.113,2.819l-0.104,0.629l-0.59,1.596l-0.087,0.347l-0.035,0.362l0.052,0.703l0.113,0.652l0.191,0.586
		l2.769,6.035l0.156,0.124l0.147,0.092l0.234,0.095l0.278,0.077l0.329,0.035l0.659-0.083l1.234-0.31l0.312-0.034l0.295,0.006
		l0.217,0.121l0.156,0.215l0.113,0.264l0.139,0.21l0.182,0.152l0.26,0.003l1.676-0.322h0.217l0.191,0.095l0.147,0.198l0.113,0.258
		l0.252,0.879l0.026,0.327l-0.113,0.758l-0.13,0.52l-0.078,0.818l0.433,2.682l0.043,1.447l0.147,0.62l0.225,0.557l0.2,0.904
		l0.087,0.23l0.121,0.072l0.147,0.006l1.156-0.221l0.702-0.072l0.685-0.006l0.269,0.078l0.217,0.155l0.156,0.244l0.252,0.525
		l0.199,0.181l0.237,0.138l0.546,0.227l0.538,0.164l0.243,0.04l0.182,0.055l0.217,0.095l0.113,0.253l0.364,1.668l0.087,1.062
		l0.723,3.127l0.006,0.436l-0.069,0.534l-0.477,1.456l-0.061,0.474l0.416,2.286l1.945,5.289l0.061,0.258l0.009,0.29l-0.113,0.973
		l0.009,0.402l0.061,0.284l0.399,1.172l0.139,0.256l0.775,1.014l0.041,0.115l0.012,0.095l-0.017,0.178l-0.402,1.396l-0.087,0.996
		l0.035,0.342l0.356,1.645l0.029,0.431l-0.069,0.6l-0.15,0.336l-0.243,0.204l-0.269,0.089l-0.321,0.06l-1.015-0.009l-0.286,0.06
		l-0.173,0.233l-2.127,6.226l0.095,0.744l0.286,0.399l6.544,0.976l0.373,0.103l0.234,0.124l0.853,0.62l0.945,0.546l0.468,0.207
		l1.867,1.223l0.581,0.612l0.434,0.781l0.52,0.729l0.503,0.439l0.564,0.379l1.763,0.724l0.295,0.06l0.312,0.034l1.52-0.089
		l0.598,0.112l0.355,0.132l0.59,0.411l0.913,0.844l-0.416,1.936l0.127,0.345l0.263,0.391l0.329,0.089l0.33-0.012l0.295-0.075
		l1.824-0.85l0.529-0.06l0.685,0.026l1.491,0.302l0.515,0.198l0.191,0.348l-0.341,1.275l-0.512,1.198l-0.035,0.135l-0.035,0.276
		l0.174,0.618l0.355,0.942l1.338,2.335l8.235,9.763l0.792,1.195l-0.532,1.939l0.012,0.606l0.087,0.666l0.642,1.471l0.043,0.25
		l0.329,0.936l0.59,1.229l0.512,0.652l0.564,0.457l1.191,0.374l0.893,0.451l1.087,0.81l2.437,2.419l2.726,0.445l1.564,0.54
		l3.116,1.577l1.526,0.983l1.041,0.856l1.26,0.83l0.269,0.118l1.145,0.31l0.364,0.19l3.492,2.744l1.656,0.586l0.338,0.034
		l0.694-0.052l0.676-0.121l0.419-0.026l0.754,0.161l0.832,0.356l1.286,0.813l0.364,0.431l0.087,0.244l-0.208,0.086l-0.991,0.238
		l-0.477,0.198l-0.251,0.146l-0.225,0.158l-0.2,0.187l-0.165,0.207l-0.121,0.241l-0.087,0.29l-0.52,2.885l-0.095,0.267l-0.277,0.497
		l-0.2,0.204l-0.237,0.138l-0.286,0.095l-0.954,0.218l-0.278,0.112l-0.243,0.138l-0.225,0.161l-0.581,0.543l-0.364,0.411
		l-0.116,0.296l-0.023,0.371l0.156,0.598l0.234,0.397l16.576,19.01l0.564,1.362l0.633,2.874l-3.775,12.801l-0.884,7.961
		l-0.208,0.659l-0.364,0.497l-0.896,0.069l-0.538-0.009l-0.477-0.052l-5.148,0.696l-1.018,0.31l-0.121-0.733l-0.988-6.032
		l-0.856-1.369l-4.619-2.565l-7.723-4.29l-4.284-2.38l-12.012-6.669l-12.007-6.662l-12.006-6.668l-12.007-6.661l-12.012-6.661
		l-12.001-6.666l-12.006-6.665l-12.007-6.665l-12.001-6.664l-9.468-5.25l-2.538-1.408l-12.012-6.663l-12.007-6.657l-2.945-1.634
		l-0.087-0.755l-2.072-9.25l-0.393-0.974l-0.824-1.421l-1.335-0.962l-0.251-0.376l-0.653-2.676l-0.806-1.065l-0.304-0.663
		l-0.165-0.525l-0.061-0.626l-0.121-0.367l-0.989-1.645l-0.13-0.548l0.043-0.508l0.165-0.258l0.173-0.172l0.919-0.706l0.997-0.531
		l1.147-0.758l0.269-0.112l0.295-0.069l0.295,0.037l0.26,0.1l0.243,0.124l0.295,0.066l2.067,0.172l0.416-0.043l14.963-4.253
		l0.642-0.253l0.408-0.255l0.234-0.474l0.295-1.034l0.676-1.674l0.627-0.623l0.72-0.563l0.746-0.451l0.633-0.497l0.436-0.508
		l-0.029-0.672l-0.179-0.726l-1.121-3.081l-0.121-0.646l-0.017-0.689l0.355-0.881l0.095-1.594l-0.659-5.992l-0.052-0.224
		l-0.095-0.212l-0.408-0.634l-0.069-0.175l-0.035-0.109l-0.147-0.804l-0.009-0.29l0.226-1.866l-0.052-0.324l-0.095-0.279
		l-0.911-1.364l-0.107-0.235l-0.173-0.603l-0.364-0.807l-0.078-0.247l-0.052-0.319l-0.026-0.569l0.087-0.565l0.069-0.155
		l0.486-0.663l0.194-0.187l0.65-0.52l0.226-0.233l0.494-0.726l0.113-0.37l0.052-0.347l-0.017-0.319l0.156-0.936l0.087-2.492
		l0.095-0.436l0.13-0.336l0.173-0.218l0.225-0.169l0.251-0.132l0.555-0.218l0.246-0.141l0.529-0.583l1.301-2.46l0.382-0.525
		l0.347-0.212l0.202,0.143l0.173,0.189l0.425,0.732l0.173,0.224l0.191,0.195l0.659,0.459l0.616,0.528l0.26,0.138l0.277,0.078
		l0.295,0.011l0.26-0.086l0.488-0.241l0.277-0.057l0.286,0.032l0.252,0.109l0.208,0.175l0.182,0.221l0.329,0.818l0.147,0.218
		l0.191,0.204l0.234,0.152l0.306,0.086l0.668,0.072l0.286,0.086l0.208,0.169l0.139,0.232l0.191,0.594l0.121,0.273l0.165,0.215
		l0.39,0.347l0.234,0.152l0.251,0.121l0.286,0.098l0.303,0.057l0.367,0.026l0.382-0.026l0.442-0.138l0.225-0.25l0.13-0.29
		l0.269-1.84l0.017-0.33l-0.052-0.511l-0.104-0.258l-0.165-0.235l-0.173-0.204l-2.535-2.001l-0.156-0.27l-0.078-0.37v-0.672
		l-0.165-0.316l-0.225-0.224l-1.092-0.436l-0.243-0.141l-0.211-0.172l-0.182-0.207l-0.251-1.659l-0.208-0.574l-0.139-0.256
		l-0.347-0.413l-0.225-0.146l-0.26-0.106l-0.26-0.066l-0.243-0.02l-0.165,0.026l-0.208,0.106l-0.462,0.284l-0.269,0.126l-0.295,0.06
		l-0.312-0.023l-0.286-0.086l-0.251-0.115l-0.937-0.583l-0.824-0.31l-0.618-0.138l-0.338-0.023l-0.329,0.04l-0.277,0.103
		l-0.226,0.155l-0.156,0.207l-0.139,0.241l-0.382,0.79l-0.173,0.201l-0.246,0.146l-0.26,0.121l-0.572,0.201l-0.295,0.052
		l-0.295-0.043l-0.269-0.1l-0.243-0.138l-0.624-0.488l-0.243-0.098l-0.246-0.009l-0.26-0.049l-0.217-0.115l-0.546-0.586
		l-0.225-0.155l-0.26-0.109l-0.329-0.009l-0.329,0.026l-0.33,0.063l-0.277,0.109l-0.728,0.439l-0.272,0.121l-0.624,0.155
		l-0.347,0.026l-2.648-0.319l-1.483,0.014l-1.061,0.115h-0.728l-0.624-0.112l-0.26-0.106l-0.243-0.135l-0.425-0.336l-0.792-0.746
		l-0.225-0.155l-0.277-0.112l-0.286-0.072l-0.277-0.014l-0.434,0.04l0.928-1.381l2.361-2.369l1.058-1.286l0.416-1.234l0.393-0.864
		l0.269-0.434l0.243-0.281l0.616-0.574l1.624-1.252l0.572-0.672l0.208-0.557l0.486-1.921l0.468-1.082l0.147-0.525l0.017-0.431
		l-0.113-0.25l-0.147-0.255l-0.234-0.525l-0.26-0.893l-0.052-0.689l0.485-3.615v-0.342l-0.061-0.313l-0.564-1.731l-0.191-0.982
		l-0.746-1.579l-0.15-0.224l-0.191-0.19l-0.217-0.155l-2.315-1.103l-0.636-0.402l-0.087-0.405l0.121-2.383l0.165-0.746l0.217-0.477
		l0.74-0.416l0.286-0.1l0.303-0.072l0.338-0.043l0.321,0.029l0.304,0.08l0.772,0.391l0.277,0.08l0.324,0.035l0.329-0.032
		l0.373-0.215l0.416-0.373l1.408-2.145l0.231-0.224l0.228-0.141l0.217-0.075l0.13-0.017l0.165,0.012l0.728,0.178l0.321,0.029
		l0.304-0.006l0.182-0.035l0.217-0.069l0.974-0.52l0.607-0.146l0.347-0.009l0.312,0.034l0.295,0.083l0.503,0.253l0.277,0.095
		l0.653,0.057l0.286-0.031l0.191-0.06l0.182-0.078l1.023-0.683l0.39-0.356l0.208-0.362l0.303-0.999l0.194-0.304l0.225-0.221
		l1.292-0.686l0.243-0.172l0.434-0.396l0.208-0.327l0.139-0.385l0.026-0.388L248,268.894l-0.113-0.342l-0.165-0.256l-0.347-0.356
		l-0.087-0.207l-0.043-0.19l0.017-1.392l-0.087-0.876l-0.139-0.293l-0.997-1.338l-0.286-0.778l-0.087-0.172l-0.116-0.155
		l-0.145-0.146l-0.159-0.1l-0.382-0.198l-1.084-0.388l-0.598-0.152l-0.277-0.103l-0.523-0.261l-0.46-0.29l-0.277-0.098l-0.303-0.06
		l-3.211-0.106l-1.752,0.21l-0.303,0.083l-0.28,0.115l-0.234,0.146l-0.199,0.175l-0.191,0.195l-0.98,1.309l-0.2,0.172l-0.26,0.115
		l-0.303,0.012l-0.289-0.075l-0.283-0.121l-0.289-0.086l-0.321-0.017l-0.321,0.04l-1.552,0.356l-1.182,0.396l-2.055,0.244
		l-0.321-0.049l-0.306-0.077l-0.26-0.106l-0.477-0.281l-0.243-0.267l-0.217-0.359l-0.243-0.681l-0.035-0.534l0.026-0.537
		l0.104-0.666l-0.069-0.373l-0.156-0.264l-0.243-0.132l-0.295-0.069l-0.338-0.046l-0.312-0.075l-0.272-0.098l-0.269-0.189
		l-5.737-5.978l-1.032-1.556l-0.078-1.031l-1.613-1.419l-0.493-0.565l0.285-0.483l0.093-1.252l0.382-1.016l2.711-0.615l1.908-1.821
		l1.162-0.706l4.602-0.468l1.78-0.801l0.705-2.257l-0.584-2.211l-0.971-2.26l-0.11-1.045l-0.098-0.931l3.324-2.702l1.179-4.487
		l1.289-1.907l0.561-0.28l1.174-0.238l0.555-0.253l0.572-0.533l0.405-0.63l1.775-3.735l0.335-1.206l0.058-10.803l0.243-0.676
		l1.046-1.316l0.208-0.596l-0.283-0.619l-1.312-1.218l-0.491-0.577l-0.399-0.974l-0.231-1.113l-0.069-1.149l0.087-1.082l0.526-2.479
		l-0.006-1.076l-2.526-6.049l-1.01-2.421l-2.163-5.185l-0.364-2.184l0.491-1.374l1.012-0.776l1.127-0.638l0.827-0.986l0.15-1.261
		l-0.514-0.948l-1.526-1.558l-0.324-1.061l-0.318-2.768l-0.561-0.759l-0.509,0.078l-0.37,0.463l-0.451,0.411l-0.769-0.057
		l-0.526-0.512l-2.359-4.874l-0.85-4.832l-1.139-3.507l-0.225-0.492l-0.382-0.471l-0.295-0.072l-1.584-0.756l-0.104-0.15
		l-0.11-0.101l-0.092-0.193l-0.121-0.193l-0.214-0.101l-0.139,0.089l-0.249,0.434l-0.139,0.098l-0.231,0.112l-0.624,0.509
		l-0.347,0.118l-0.763-0.201l-0.509-0.523l-0.838-1.328l-1.775-1.963l-0.561-0.969l-1.624-8.415l-0.004-0.007l-0.655-1.167
		l-1.173-0.773l-2.636-0.75l-1.168-0.739l-0.607-1.274l-0.555-6.833l-0.723-2.22l-0.41-0.595l-0.526-0.571l-0.439-0.597
		l-0.145-0.666l0.168-0.63l0.561-1.363l0.087-0.528l-0.231-0.611l-0.688-1.192l-0.046-0.603l0.312-0.488l0.509-0.222l0.572-0.149
		l0.52-0.263l1.064-1.625l0.526-2.231l0.139-4.476l-0.376-1.171l-0.821-0.527l-1.046-0.319l-1.052-0.547l-1.815-1.928l-1.006-0.401
		l-1.52,0.439l-0.584,0.544l-0.243,0.534l-0.26,0.233l-0.647-0.365l-0.844-2.246l-1.243-1.597l-0.035-0.272l-0.59,0.049l-1.11,0.312
		l-1.098,0.072l-0.965,0.248l-0.474,0.032l-0.711-0.268l0.37-0.43l1.116-0.709l-0.7-0.847l-0.879-0.328l-0.104-0.305l2.671-1.375
		l0.607-0.751l-0.145-0.761l-1.237-0.643l-1.087-0.006l-2.22,0.788l-0.879,0.173l-1.301-0.468l0.081-0.965l0.711-1.283l0.595-1.427
		l-0.139-0.899l-0.647-0.64l-0.821-0.545l-0.665-0.617l-0.439-0.885l0.023-0.566l0.243-0.53l0.22-0.776l0.162-1.298L186.6,83.17
		l-0.173-0.646l-0.468-0.626l-0.624-0.568l-0.491-0.61l-0.069-0.759l0.075-1.714l-0.699-1.293l-1.26-0.986l-1.619-0.779l5.654-5.58
		l5.648-5.576l5.648-5.581l5.654-5.579l4.39-2.255l3.886-1.996l3.859-1.923l3.81-1.899l5.443-1.973l4.54-1.702l4.255-1.596
		l4.58-1.718l5.122-1.921l4.58-1.718l3.889-1.459l0.99,1.85l3.923-2.16L261.505,30l1.237,1.48l-2.103,4.317h5.566l4.206,1.233
		l-2.721,6.906l2.261,4.088l2.687,4.857l0.084,0.029l4.935,1.694l0.306-1.691l0.005-0.029l0.312-2.321l1.56-1.088l2.183,0.155
		l0.156,3.256l4.212,0.018L289.988,52.919z"/>
	<path class="st1" d="M330.707,63.405l0.139,0.033l10.781-0.092l3.335,0.917l3.977,1.997l2.283,0.521l0.543,0.407l0.879,1.474
		l0.41,0.271l1.122-0.083l0.416,0.132l0.37,0.497l0.22,0.54l0.289,1.238l0.179,0.299l0.289,0.066l0.335-0.009l0.329,0.086
		l3.029,1.936l5.451,3.491l5.451,3.492l6.382,4.079l4.532,2.901l5.127,3.287l5.775,3.695l5.324,3.407l5.578,3.569l1.723,1.102
		l1.04,1.031l1.422,2.269l0.861,1.015l0.717,0.394l1.671,0.511l1.289,1.115l0.682,0.114l1.763-0.436l1.752-0.138l5.937,0.669
		l5.977,0.669l3.133-0.266l2.85-1.24l0.069-0.319l-0.046-0.496l0.116-0.463l0.538-0.217l0.295,0.128l1.058,0.873l0.451,0.531
		l0.11,0.44l0.22,0.326l0.78,0.196l0.728,0.081l0.306-0.042l0.792-0.308l0.104,0.186l0.058,0.299l0.295,0.193l3.266,0.235
		l-0.012-0.381l0.075-0.781l-0.023-0.368l1.515,1.985l0.873,0.883l1.023,0.558l5.521,1.484l4.168,1.122l1.457-0.023l2.347-0.45
		l0.936,0.127l0.838,0.309l0.867-0.012l3.214-0.675l0.538,0.13l0.721,0.33l5.036,2.301l2.179,0.462l2.133-0.055l2.168-1.242
		l-0.008,0.865l0.798,10.329l0.555,1.925l0.382,3.143l0.052,7.357l-0.113,0.871l-0.156,0.532l-0.191,0.19l-1.223,0.871l-0.269,0.315
		l-0.642,0.946l-0.364,0.328l-0.462,0.276l-2.838,0.907l-0.529,0.229l-0.416,0.341l-0.841,0.916l-0.208,0.168l-0.234,0.142
		l-0.54,0.207l-1.5,0.358l-0.494,0.256l-0.303,0.185l-0.304,0.272l-0.407,0.505l-0.165,0.401l-0.064,0.394l0.012,0.793l-0.15,1.114
		l-0.252,0.263l-0.364,0.22l-6.969,15.466l-1.145,1.708l-2.986,0.937l-0.65,0.349l-0.185,0.31l-0.006,0.358l-0.116,0.213v0.25
		l0.156,0.328l0.289,0.855l0.772,1.592l0.815,3.438l0.182,3.067l0.659,3.399l0.217,0.569l0.087,0.306l0.315,2.007l0.104,0.28
		l0.069,1.368l-0.202,1.799l-0.006,0.842l0.087,0.552l0.373,0.418l0.156,0.224l0.139,0.246l0.295,0.85l0.165,0.228l0.182,0.185
		l0.217,0.164l0.39,0.372l0.269,0.5l0.775,2.337l1.7,3.279l2.318,3.502l0.399,0.383l1.804,1.247l0.818,0.75l0.173,0.207l0.616,0.932
		l0.46,1.048l0.147,0.237l0.173,0.224l0.572,0.595l0.329,0.432l0.506,1.056l0.581,2.506l0.113,0.254l0.139,0.228l0.165,0.217
		l0.798,0.767l0.225,0.159l0.243,0.142l1.39,0.483l0.789,0.385l0.225,0.155l0.754,0.741l0.437,0.336l3.411,1.937l0.408,0.353
		l0.373,0.401l0.312,0.445l0.139,0.246l0.113,0.271l0.278,0.508l1.251,1.419l0.217,0.172l0.26,0.125l0.581,0.185l0.226,0.152
		l0.381,0.353l0.182,0.198l0.208,0.172l1.026,0.5l0.182,0.125l0.052,0.108l-0.043,0.126l-8.758,3.523l-0.598,0.336l-0.315,0.357
		l0.087,0.613l9.261,24.603l0.087,0.367l-0.006,0.465l-0.497,0.356l-0.642,0.313l-6.63,2.544l-0.165,0.169l-0.165,0.21l-1.815,3.115
		l-0.685,0.827l-0.624,0.589l-1.269,0.973l-0.737,0.827l-1.552,2.257l-0.642,1.203l-0.15,0.465l-0.173,0.824l-0.121,0.25
		l-0.234,0.233l-18.605,6.974l-0.376,0.181l-0.26,0.155l-0.173,0.181l-0.13,0.204l-0.72,1.522l-0.763,1.177l-0.182,0.192
		l-0.211,0.172l-0.243,0.126l-0.286,0.083l-3.454,0.451l-0.295,0.077l-0.243,0.092l-0.989,0.537l-0.156,0.109l-0.234,0.198
		l-0.252,0.385l-0.043,0.327l0.104,0.253l0.191,0.195l1.058,0.746l0.13,0.124l0.078,0.187l3.046,12.897l0.156,2.116l-0.078,0.393
		L448,300.757l-0.416,0.804l-0.087,0.365l0.494,11.536l-1.367-0.488l-0.673-0.385l-0.286-0.456l-0.295,0.112l-0.714,0.129
		l-0.879-0.037l-0.786-0.393l-1.324,0.319l-3.301-1.1l-1.52,0.023l-2.818,2.056l-1.674,0.772l-1.269-0.551l-0.509,0.224l-0.52,0.011
		l-0.546-0.103l0.029,0.721l25.438,43.592l6.639,14.392l0.399,1.229l0.202,30.04l-0.081,0.316l-0.214,0.474l-1.26,1.275
		l-0.581,0.744l-0.139,0.75l0.043,0.75l1.422,8.635l-0.095,1.54l-0.251,1.195l-10.197,20.281l-0.226,0.233l-0.598,0.48l-0.243,0.121
		l-0.286,0.106l-0.922,0.236l-0.26,0.109l-0.46,0.308l-0.182,0.187l-1.093,1.586l-0.199,0.164l-0.991,0.577l-0.269,0.112
		l-0.304,0.095l-0.702,0.081l-0.676-0.017l-0.896-0.141l-0.85-0.236l-0.269,0.089l0.078,0.236l23.05,33.741l-0.009,0.124
		l-0.095,0.086l-0.581-0.017l-0.303-0.072l-0.26-0.109l-0.46-0.288l-0.252-0.075h-0.26l-0.159,0.052l-0.191,0.118l-0.382,0.348
		l-0.564,0.607l-0.234,0.124l-0.304,0.023l-0.277-0.06l-0.538-0.221l-0.277-0.083l-0.321-0.012l-0.592,0.132l-0.278,0.101
		l-0.312,0.04l-0.33,0.003l-0.988-0.129l-0.347,0.009l-0.332,0.066l-0.277,0.098l-0.234,0.144l-0.841,0.667l-0.243,0.147
		l-0.269,0.103l-0.971,0.078l-0.277,0.075l-0.246,0.124l-0.225,0.15l-0.26,0.121l-0.841,0.279l-0.243,0.017l-0.165-0.02
		l-0.139-0.103v-0.161l0.052-0.27l0.139-0.417l-0.104-0.25l-0.217-0.147l-2.691-0.227l-1.647-0.65l-0.306-0.081l-0.321-0.052
		l-0.356-0.006l-1.63,0.256l-0.312,0.02l-0.289-0.052l-0.243-0.124l-0.911-0.63l-0.538-0.204l-0.616-0.15l-0.277-0.103l-0.208-0.144
		l-0.139-0.138l-0.254-0.299l-0.165-0.155l-0.442-0.313l-0.243-0.135l-0.806-0.31l-0.937-0.575l-0.514-0.233l-0.286-0.104
		l-0.607-0.138l-0.303-0.029l-0.304,0.02l-0.321,0.204l-0.208,0.193l-0.217,0.141l-0.191,0.017l-0.792-0.057l-0.711,0.046
		l-0.59,0.132l-0.321,0.155l-0.156,0.115l-0.321,0.42l-0.104,0.043l-0.165-0.095l-0.356-0.359l-0.688-0.842l-0.798-0.693
		l-0.234-0.147l-2.422-0.954l-0.243-0.147l-0.416-0.368l-0.165-0.207l-0.121-0.242l-0.278-0.868l-1.139-2.291l-2.428-3.682
		l-0.991-0.888l-0.234-0.144l-0.789-0.336l-0.286-0.078l-1.885-0.796l-1.717-1.296l-0.182-0.19l-1-1.311l-0.182-0.19l-0.217-0.17
		l-0.251-0.121l-0.278-0.086l-0.321,0.083l-0.373,0.236l-0.494,0.609l-1.399,0.88l-6.769,3.199l-1.335,0.423l-1.442-0.428
		l-0.633-2.874l-0.564-1.362l-16.576-19.01l-0.234-0.397l-0.156-0.598l0.023-0.371l0.116-0.296l0.364-0.411l0.581-0.543l0.225-0.161
		l0.243-0.138l0.278-0.112l0.954-0.218l0.286-0.095l0.237-0.138l0.2-0.204l0.277-0.497l0.095-0.267l0.52-2.885l0.087-0.29
		l0.121-0.241l0.165-0.207l0.2-0.187l0.225-0.158l0.251-0.146l0.477-0.198l0.991-0.238l0.208-0.086l-0.087-0.244l-0.364-0.431
		l-1.286-0.813l-0.832-0.356l-0.754-0.161l-0.419,0.026l-0.676,0.121l-0.694,0.052l-0.338-0.034l-1.656-0.586l-3.492-2.744
		l-0.364-0.19l-1.145-0.31l-0.269-0.118l-1.26-0.83l-1.041-0.856l-1.526-0.983l-3.116-1.577l-1.564-0.54l-2.726-0.445l-2.437-2.419
		l-1.087-0.81l-0.893-0.451l-1.191-0.374l-0.564-0.457l-0.512-0.652l-0.59-1.229l-0.329-0.936l-0.043-0.25l-0.642-1.471
		l-0.087-0.666l-0.012-0.606l0.532-1.939l-0.792-1.195l-8.235-9.763l-1.338-2.335l-0.355-0.942l-0.174-0.618l0.035-0.276
		l0.035-0.135l0.512-1.198l0.341-1.275l-0.191-0.348l-0.515-0.198l-1.491-0.302l-0.685-0.026l-0.529,0.06l-1.824,0.85l-0.295,0.075
		l-0.33,0.012l-0.329-0.089l-0.263-0.391l-0.127-0.345l0.416-1.936l1.543,0.215l0.52-0.236l0.442-0.549l0.419-0.431l0.127-0.238
		l0.035-0.207l-0.824-1.077l-0.139-0.29l0.052-0.184l0.121-0.152l2.561-1.712l0.269-0.37l0.139-0.414l0.095-0.893l0.217-0.224
		l0.278-0.109l0.295,0.046l0.575,0.149l0.702,0.014l2.856,0.526l0.503,0.003l0.226-0.069l0.208-0.158l1.052-1.109l0.65-0.551
		l0.303-0.373l1.422-1.396l0.757-0.784l1.153-2.358l0.659-1.838v-0.396l-0.191-0.818l-0.035-0.718l0.13-0.434l0.234-0.353
		l0.382-0.359l1.052-0.68l0.26-0.118l0.312-0.037l0.321,0.017l0.303,0.06l0.659,0.029l0.546-0.103l0.376-0.149l0.494-0.258
		l0.269-0.103l0.598-0.118l0.286,0.014l0.278,0.072l1.763,1.229l0.121,0.009l0.13-0.086l0.624-0.603l1.535-2.136l-0.035-1.097
		l0.254-1.212l0.214-0.548l0.087-0.422v-0.379l-0.092-0.276l-0.168-0.212l-0.2-0.147l-0.225,0.009l-0.243,0.1l-0.936,0.577
		l-0.269,0.121l-0.286,0.098l-0.321,0.052l-0.303-0.037l-0.263-0.112l-0.191-0.19l-0.165-0.224l-0.512-1.005l-0.598-2.108
		l-0.13-0.255l-0.156-0.227l-0.173-0.195l-2.084-1.711l-0.121-0.396v-0.594l0.546-4.003l0.147-0.494l0.142-0.307l0.139-0.103
		l0.477-0.215l0.269-0.083l0.252-0.037h0.199l0.26,0.052l0.243,0.103l0.434,0.31l0.763,0.764l1.104,0.801l0.252,0.121l0.338,0.049
		l0.433-0.049l7.405-2.751l0.59-0.353l0.095-0.253l-0.095-0.207l-0.173-0.21l-0.121-0.25l-0.277-0.899l-0.124-0.652l-0.104-3.982
		l0.043-0.445l-0.017-1.444l-0.46-0.801l-1.786-2.113l-0.182-0.5l-0.061-0.482l0.017-4.261l-0.199-0.89l-5.902-14.303l-0.399-0.583
		l-11.57-8.627l-1.312-1.295l1.659-0.835l5.356-1.875l1.986-1.306l0.419-0.345l5.795-5.975l0.13-0.293l0.069-0.324l0.199-2.423
		l0.069-0.302l0.159-0.359l0.243-0.385l0.763-0.959l0.191-0.336l0.173-0.606l0.113-1.361l-0.026-0.345l-0.069-0.31l-0.676-1.654
		l-0.139-0.253l-0.642-0.882l-0.185-0.204l-0.286-0.474l-0.425-1.134l-0.121-0.62l0.061-2.793l-0.078-0.755l-0.061-0.31
		l-0.139-0.339l-0.26-0.356l-0.59-0.167l-25.282-3.224l-0.653-0.189l-0.243-0.164l-0.087-0.284l0.009-0.316l0.078-0.296l0.139-0.238
		l0.861-0.663l0.347-0.414l0.147-0.235l0.538-0.609l0.139-0.235l0.121-0.626l0.113-0.276l0.165-0.23l0.381-0.385l0.165-0.212
		l0.069-0.35l0.029-0.442l-0.121-1.186l0.023-0.83l0.225-1.016l0.22-0.278l0.286-0.155l0.321-0.003l0.633,0.106l0.338,0.026
		l0.347-0.012l4.185-0.861l1.257-0.385l0.355-0.169l0.529-0.327l0.278-0.129l0.312-0.075l0.636-0.037l0.477,0.02l0.286,0.057
		l0.269,0.103l0.685,0.442l0.243,0.121l0.581,0.184l0.974,0.123l0.191,0.161l0.278,0.33l0.321,0.281l0.208,0.149l0.234,0.126
		l0.26,0.078l0.65,0.077l0.67,0.023l0.295-0.075l0.243-0.155l0.607-0.546l0.234-0.143l0.269-0.092l0.286-0.011l0.277,0.052
		l0.251,0.115l0.225,0.155l0.757,0.758l0.928,0.609l0.199,0.187l0.182,0.204l1.728,2.498l0.494,1.034l0.494,0.649l0.277,0.491
		l0.121,0.267l0.156,1.016l0.104,0.287l0.182,0.195l0.382,0.359l0.341,0.445l0.373,0.402l0.217,0.158l0.529,0.233l0.581,0.143
		l0.312,0.017l2.231-0.454l0.867-0.316l0.295-0.072l0.321-0.034l0.286,0.02l0.254,0.092l0.468,0.287l0.529,0.414l0.173,0.109
		l0.494,0.189l0.355,0.034l0.39-0.012l1.017-0.307l0.373-0.02l0.252,0.106l0.65,0.445l0.243-0.032l0.182-0.21l0.286-0.471
		l0.269-0.241l0.295-0.172l1.113-0.448l0.78-0.58l1.145-1.079l0.355-0.241l0.74-0.359l0.598-0.396l0.356-0.35l0.364-0.485
		l0.295-0.201l0.312-0.055l0.269,0.103l0.252,0.129l0.376,0.029l0.46-0.098l1.327-0.749l0.442-0.146l0.338-0.035l0.697,0.035
		l0.642,0.098l0.338,0.012l0.338-0.035l1.327-0.419l0.523-0.23l0.278-0.218l0.234-0.31l0.434-0.827l0.251-0.261l0.338-0.25
		l1.052-0.614l0.408-0.072l0.356,0.014l0.485,0.264l0.217,0.144l0.312,0.063l0.373-0.034l2.214-1.246l0.858-0.701l0.962-0.976
		l0.385-0.488l0.251-0.198l0.199-0.123l0.494-0.098l0.304-0.009l0.286,0.052l0.815,0.319l0.913,0.256l0.26,0.031l0.078-0.178
		l-1.2-19.029l-0.277-0.867l-0.59-0.864l-3.411-3.926l-0.65-0.962l-0.269-0.948l-0.567-7.511l-0.286-0.85l-0.694-0.814l-3.038-2.803
		l-0.451-0.517l-0.104-0.095l-0.104-0.04l-0.156-0.035h-0.217l-0.217,0.026l-0.113,0.023l-0.277,0.121l-0.434,0.271l-0.783,0.728
		l-0.225,0.151l-0.243,0.125l-0.304,0.073l-0.321,0.019l-0.954-0.144h-0.329l-0.324,0.039l-0.286,0.073l-0.251,0.109l-0.858,0.569
		l-1.006,0.513l-0.295,0.077l-0.662,0.047l-0.963-0.138l-0.303,0.022l-0.278,0.086l-0.468,0.271l-0.208,0.161l-0.48,0.284
		l-0.266,0.103l-0.584,0.159l-1.63,0.215l-0.581,0.172l-0.775,0.349l-0.295,0.077l-0.312,0.052l-0.338-0.009l-0.321-0.052
		l-0.277-0.112l-0.234-0.151l-0.182-0.189l-0.165-0.211l-3.786-8.905l-0.624-0.883l-0.373-0.385l-2.344-1.837l-1.431-1.587
		l-0.286-0.47l-0.191-0.551l-0.538-3.822l-0.104-0.327l-0.133-0.233l-0.174-0.168l-0.208-0.159l-2.263-1.169l-0.662-0.483
		l-0.373-0.389l-0.148-0.263l-0.928-2.433l-1.327-2.414l-0.662-0.85l-0.381-0.383l-0.85-0.672l-0.728-0.457l-0.835-0.643
		l-0.173-0.211l-0.147-0.228l-0.121-0.25l-0.199-0.531l-0.121-0.246l-0.642-0.728l-0.295-0.198l-1.032-0.475l-0.619-0.159
		l-5.526-0.491l-2.596,0.047l-1.616,0.172l-0.303-0.009l-0.226-0.078l-0.078-0.224l0.182-1.518l-0.451-1.82l-2.44-6.402
		l-0.321-0.646l-0.468-0.715l-3.255-2.839l-0.451-0.734l-4.532-12.757l-0.329-0.685l-0.399-0.407l-0.694-0.164l-0.685-0.004
		l-0.644,0.22l0.656,1.65l-0.329,1.229l-0.642,1.066l-3.078,3.236l-0.451,0.25l-0.33,0.069l-1.379-0.207l-0.199-0.069l-0.676,0.043
		l-0.532,0.129l-0.419,0.233l-0.353,0.355l-1.471-1.562l-0.338-2.322l0.003-2.562l-0.451-2.288l-1.315-2.209l-0.971-1.135
		l-1.879-1.053l-0.381-1.321l0.017-3.844l-0.052-0.379l-0.266-0.614l-0.76-1.252l-0.402-1.526l-0.569-1.235l-1.093-1.83l-1.289-1.11
		l-3.087-2.007l-2.307-2.004l-0.191-0.233l-0.364-1.666l-0.225-0.44l-0.422-0.086l-0.925,0.819l-0.564,0.233l-0.581-0.16
		l-0.726-0.746l-0.431-0.233l-2.246,0.073l-0.853-0.302l-0.338-1.136l1.532-6.035l-0.003-0.648l-0.179-0.647l-0.486-1.166
		l-0.098-0.638l0.121-0.552l0.52-1.132l0.121-0.597l-0.295-0.362l-0.691-0.013l-1.341,0.203l-1.911-0.794l-0.419-0.246l-0.292-0.246
		l-0.358-0.191l-0.439-1.39l-0.009-65.476l8.165-0.067l1.925-0.261l0.59-0.003l0.549,0.148l1.017,0.49l0.723,0.098l10.394-0.207
		l8.752-0.179l0.486,0.107l0.827,0.494L330.707,63.405z"/>
	<path class="st2" d="M623.574,88.695l-4.682,6.685l-4.694,6.683l-4.688,6.685l-4.694,6.684l-2.89,4.116l-2.896,4.12l-2.89,4.112
		l-2.896,4.118l-4.59,4.526l-4.601,4.528l-4.602,4.525l-4.596,4.522l-1.913,1.886l-0.804,1.544l0.029,2.978l0.069,7.168l0.075,7.486
		v4.124v5.919v5.919v5.917v5.918v6.95v6.946v6.949v6.948v6.944v6.945v0.94v6.006v6.946v6.943v6.946v6.94v6.948v6.942v6.948v6.942
		v6.948l0.064,4.553l0.046,3.75l0.04,3.75l0.081,6.035l0.081,6.023l0.081,6.029l0.081,6.035l0.052,3.916l0.052,3.916l0.052,4.221
		l1.428,1.832l1.416,1.832l1.428,1.826l1.422,1.832l2.769,3.549l2.861,3.681l3.081,3.957l2.555,3.274l2.752,3.532l2.885,3.705
		l2.821,3.613l2.815,3.619l2.145,2.757l0.676,1.223l0.202,1.051l-0.148,3.48l-0.017,0.001l-29.797,1.87l-0.356,0.063l-43.266,19.232
		l-3.064,1.169l-0.234-1.037v-0.345l0.24-0.569l-0.257-0.816l-0.78-1.686l-0.694-3.054l-0.451-0.776l0.202-0.178l0.379-0.414
		l0.217-0.167l-0.353-0.779l-0.445-2.637l-0.257-0.402l-0.598-0.635l-0.257-0.517l-0.043-0.428l0.321-0.598l0.069-0.457
		l-0.384-2.465l0.038-0.951l0.119-0.187l0.246-0.207l0.254-0.299l0.147-0.448l-0.09-0.037l-0.33-1.479l-0.121-3.559l-0.433-0.842
		l-0.754-0.738l-0.468-0.629l-2.309-4.825l-0.321-0.483l-0.188-0.583l-0.367-3.59l-0.555-1.953l-0.364-2.145l-0.263-4.698
		l-0.662-2.157l-1.246-1.447l-0.225-1.174l-0.633-1.134l-0.968-0.787l-1.228-0.129l0.419-1.005l0.315-0.471l0.41-0.422l-0.801-0.793
		l-1.986-3.948l-0.355-1.588l-0.33-0.913l-0.728-1.174l0.029-1.137l-0.029-0.345l-0.85-2.544l-0.295-0.526l0.199-0.405l0.087-0.333
		l0.095-0.816h-0.382l-0.445,0.072l-0.168-0.557l-0.153-1.754l-0.714-1.838l-0.119-0.833l0.451-0.778l-0.506-0.528l-0.058-0.887
		l0.087-0.836l-0.078-0.37l-1.702-2.501l-0.104-1.005l-0.298-0.781l-0.5-0.603l-0.694-0.491l-0.89-0.35l-1.465-0.146l-0.665-0.261
		l-0.205-0.359l-1.399-1.668l-0.341-0.043l-0.055-0.815l-0.205-0.655l-0.408-0.439L498,337.877l-0.373-0.841l-2.171-7.959
		l-0.737-1.326l-0.954-0.566l-0.174-0.218l-0.569-1.011l-0.214-0.287l-0.515-0.187l-0.83,0.112l-0.598-0.307l-0.642-1.547
		l-0.301-0.468l-0.789-0.543l-0.5-0.881l-0.752-0.637L487,320.659l-0.717-0.336l-2.003-0.445l-0.321-0.106l-0.139-0.299
		l-0.344-0.304l-0.431-0.235l-1.662-0.267l-0.624-0.416l-0.5-0.514l-0.885-0.448l-1.202-0.066l-1.101,0.25l-1.046,0.112
		l-1.023-0.485l-4.792-0.189l-2.963-3.62l-0.682-0.554l-0.249-0.124l-0.208-0.273l-0.269-0.27l-0.436-0.126h-1.72l-1.778,0.319
		l-0.887,0.293l-0.598,0.356l-0.425,0.62l-0.353,0.689l-0.436,0.56l-0.697,0.233l-10.518-1.55l-0.494-11.536l0.087-0.365
		l0.416-0.804l0.147-0.373l0.078-0.393l-0.156-2.116l-3.046-12.897l-0.078-0.187l-0.13-0.124l-1.058-0.746l-0.191-0.195
		l-0.104-0.253l0.043-0.327l0.252-0.385l0.234-0.198l0.156-0.109l0.989-0.537l0.243-0.092l0.295-0.077l3.454-0.451l0.286-0.083
		l0.243-0.126l0.211-0.172l0.182-0.192l0.763-1.177l0.72-1.522l0.13-0.204l0.173-0.181l0.26-0.155l0.376-0.181l18.605-6.974
		l0.234-0.233l0.121-0.25l0.173-0.824l0.15-0.465l0.642-1.203l1.552-2.257l0.737-0.827l1.269-0.973l0.624-0.589l0.685-0.827
		l1.815-3.115l0.165-0.21l0.165-0.169l6.63-2.544l0.642-0.313l0.497-0.356l0.006-0.465l-0.087-0.367l-9.261-24.603l-0.087-0.613
		l0.315-0.357l0.598-0.336l8.758-3.523l0.043-0.126l-0.052-0.108l-0.182-0.125l-1.026-0.5l-0.208-0.172l-0.182-0.198l-0.381-0.353
		l-0.226-0.152l-0.581-0.185l-0.26-0.125l-0.217-0.172l-1.251-1.419l-0.278-0.508l-0.113-0.271l-0.139-0.246l-0.312-0.445
		l-0.373-0.401l-0.408-0.353l-3.411-1.937l-0.437-0.336l-0.754-0.741l-0.225-0.155l-0.789-0.385l-1.39-0.483l-0.243-0.142
		l-0.225-0.159l-0.798-0.767l-0.165-0.217l-0.139-0.228l-0.113-0.254l-0.581-2.506l-0.506-1.056l-0.329-0.432l-0.572-0.595
		l-0.173-0.224l-0.147-0.237l-0.46-1.048l-0.616-0.932l-0.173-0.207l-0.818-0.75l-1.804-1.247l-0.399-0.383l-2.318-3.502l-1.7-3.279
		l-0.775-2.337l-0.269-0.5l-0.39-0.372l-0.217-0.164l-0.182-0.185l-0.165-0.228l-0.295-0.85l-0.139-0.246l-0.156-0.224l-0.373-0.418
		l-0.087-0.552l0.006-0.842l0.202-1.799l-0.069-1.368l-0.104-0.28l-0.315-2.007l-0.087-0.306l-0.217-0.569l-0.659-3.399
		l-0.182-3.067l-0.815-3.438l-0.772-1.592l-0.289-0.855l-0.156-0.328v-0.25l0.116-0.213l0.006-0.358l0.185-0.31l0.65-0.349
		l2.986-0.937l1.145-1.708l6.969-15.466l0.364-0.22l0.252-0.263l0.15-1.114l-0.012-0.793l0.064-0.394l0.165-0.401l0.407-0.505
		l0.304-0.272l0.303-0.185l0.494-0.256l1.5-0.358l0.54-0.207l0.234-0.142l0.208-0.168l0.841-0.916l0.416-0.341l0.529-0.229
		l2.838-0.907l0.462-0.276l0.364-0.328l0.642-0.946l0.269-0.315l1.223-0.871l0.191-0.19l0.156-0.532l0.113-0.871l-0.052-7.357
		l-0.382-3.143l-0.555-1.925l-0.798-10.329l0.008-0.865l0.359-0.205l0.734,0.043l0.26,0.577l-0.514,1.027l6.983,0.207l1.723,0.577
		l0.486,0.624l0.295,0.754l0.422,0.743l0.89,0.588l1.786-0.093l0.942-1.464l1.22-3.706l1.445-1.726l3.671-3.33l4.399-4l1.069-1.401
		l0.925-1.716l1.561-4.104l1.098-2.912l1.127-1.375l4.792-2.307l4.815-2.307l5.422-2.606l2.532-1.252l0.254-0.327l-0.041-0.347
		l0.052-0.222l0.538,0.052l0.168,0.095l0.168,0.046l0.156-0.009l5.665-1.966l4.411-1.527l0.301-0.282l0.33-0.9l0.318-0.295
		l7.226-2.768l5.908-2.258l4.654-1.778l3.526-2.308l1.231,1.621l3.37,2.276l1.376,1.56l0.936,1.723l0.578,0.564l1.017,0.517
		l2.671,0.907l0.902,0.535l1.463,1.341l3.59,4.999l2.486,1.925l2.711,1.095l2.925,0.338l5.711-0.324l6.272-0.36l2.809-0.783
		l1.48-0.081l4.48-1.101l0.89,0.06l1.48,0.612l0.798,0.147l0.809-0.181l2.37-1.348l2.659,0.863l2.462,1.295l2.492,0.485
		L623.574,88.695z"/>
	<path class="st3" d="M604.05,402.983l-0.048,1.111l-0.032,0.032l-4.26,4.333l-2.012,3.053l-0.264,0.973l-1.211,0.742l-3.182,2.877
		l-1.994,2.434l-1.161,0.688l-0.86-1.05l-1.042,0.425l-0.965-0.1l-0.642-0.638l-0.055-1.199l-1.12,1.149l-0.219,1.33l-0.519,1.285
		l-1.616-0.149l-2.185-0.511l-0.487-0.036l-0.687,0.425l-1.111,1.212l-1.511,0.633l-0.583,0.751l-0.61,0.624l-0.878-0.045
		l-0.737-0.38l-0.533-0.371l-0.369-0.534l-0.232-0.796l0.041-0.823l0.551-1.538l-0.036-0.679l-0.137-0.769l0.228-0.688l0.842-1.24
		l-1.98,1.511l-0.228,6.537l-1.193,1.479l-1.038-0.774l-1.038-3.42l-1.019-0.774l-0.583-0.335l-0.514-0.588l-0.523-0.208
		l-0.664,0.787l0.364,0.832l0.164,0.733l-0.146,0.706l0.91-0.394l0.719,0.19l0.487,0.624l0.168,0.909l-0.118,0.371l-0.519,0.299
		l-0.128,0.317l0.187,0.534l0.41,0.127l0.41,0.091l0.178,0.371l0.095,4.054l0.332,2.154l0.719,1.403l0.501,0.136l0.61-0.072
		l0.683,0.032l0.706,0.489l0.546,0.801l0.082,0.606l-0.628,1.443l-1.379,1.688l-1.243,0.244l-0.178-0.629l1.83-0.909l-0.965-0.344
		l-0.774-0.516l-1.356-1.421l-0.209-0.443l0.073-0.281l-0.036-0.213l-0.592-0.231l0.073,0.127l-0.378,0.131l-0.819,0.149
		l-1.397,0.76l-1.252,1.493l-1.174,1.032l-1.161-0.624l0.036,0.475l0.146,0.502l0.3,0.416l0.46,0.163l0.269,0.154l-0.105,0.362
		l-0.378,0.602l0.364,0.814l1.584,1.045l0.382,0.778l-0.656,1.285l-1.543,1.507l-1.743,1.249l-2.594,1.064l-3.423,4.046
		l-1.939,0.733l-1.716-0.371l-1.666-0.747l-1.78-0.407l-1.83,0.19l-5.653,1.77l-2.321,1.656l-1.411,0.444l-1.643,1.018l-2.786,2.24
		l-0.66,0.688l-0.492,0.779l-1.033,2.327l-1.67,2.1l-0.241,0.937l0.109,0.43l0.833,1.104l0.064,0.362l-0.214,0.851l-0.059,0.484
		l-1.056,3.554l-0.128,1.824l1.183,0.892l-0.291,1.458l0.678,0.643l1.152-0.113l1.165-0.856l0.045,0.625l-0.437,0.661l-1.957,1.852
		l-1.17,1.553l-0.3,0.67l-0.241,2.825l-0.355,0.969l-1.903,2.69l-0.041,0.747l0.605,2.024l-0.009,1.033l-0.346,0.861l-0.496,0.797
		l-0.651,0.698l-0.797,0.525l-2.704,1.223l-0.737,0.489l-1.343,1.563l-0.755,0.598l-0.988,0.159l0.437-0.947l0.605-2.124l0.105-0.77
		l-1.006,0.245l-0.442,0.543l-0.096,0.725l0.014,0.783l-0.055,0.516l-0.328,1.372l0.105,0.308l0.209,0.303l0.1,0.331l-0.983,1.603
		l-1.138,2.971l-1.493,2.383l-0.583,3.203l-0.642,1.3l-0.71,0.634l-0.487,0.1l-1.211-0.526l-0.269-0.163l-0.733-0.843l-0.264-0.054
		l-1.488-0.122l0.232-0.485l0.041-0.222l-0.578-0.462l-0.437,1.019l0.155,0.852l0.674,0.498l1.129-0.018l-0.674,0.788l0.228,0.652
		l0.787,0.258l1.944-0.788l0.624,0.449l0.355,0.852l0.141,0.825l-0.109,1.758l-4.511,12.375l-1.434,1.373l-1.602,0.254l-1.129-0.838
		l0.009-1.89l-1.238,0.68l-0.346,0.422l0.2,0.557l0.378,0.562l0.191,0.526l0.25,0.508l0.564,0.512l1.238-0.095l0.619,0.299
		l-0.159,0.961l-1.179,1.296l-0.173,0.394l-0.155,0.494l-0.401,0.689l-0.496,0.607l-0.487,0.263l-0.537-0.29l-0.373-1.278
		l-0.437-0.295l-0.382-0.675l0.118-1.278l-0.082-0.771l-0.974,0.82l-1.438-0.784l-0.651-0.1l-0.615,0.503l0.555,0.53l0.66,0.258
		l1.488,0.354l-0.419,0.993l-0.528,0.471l-1.757,0.399l-0.573,0.014l-0.628-0.059l-0.505,0.059l-0.205,0.385l0.041,1.179
		l0.109,0.553l0.232,0.571l0.81-1.088l1.857-0.127l1.957,0.571l1.097,1.024l-0.214,1.342l-2.795,4.778l-1.793,4.543l-1.83,6.838
		l-0.619,1.578l-0.501-0.726l-0.482,0.041l-0.473,0.485l-0.446,0.626l-0.091,0.304l0.055,0.694l-0.177,0.313l-0.797,0.721
		l-0.173,0.245l-1.912,5.742l-0.355-1.034l0.173-1.624l-0.2-0.798l-0.719,0.558l-0.401,0.776l-0.337,0.871l-0.455,0.835
		l-0.273-0.032l-0.396-0.213l-0.355,0.054l-0.15,0.785l0.109,0.463l0.874,1.211l-0.564,0.771l-1.884,0.277l-2.13-0.522l-1.338-1.651
		l-0.045,0.322l-0.332,0.821l-1.643-0.494l-1.211,1.157l-1.024,1.588l-1.092,0.794l-0.232,0.077l-0.2,0.018l-0.182,0.082
		L472.871,570l-4.746-3.411l-4.775-3.422l-4.775-3.427l-4.775-3.427l-4.775-3.421l-4.781-3.426l-4.769-3.426l-4.769-3.42
		l-4.781-3.42l-0.371-0.266l-4.398-3.159l-4.781-3.419l-4.769-3.425l-4.769-3.419l-4.781-3.424l-4.769-3.424l-4.775-3.424
		l-3.046-2.175l-0.769-1.001l-0.561-1.139l-0.971-3.429l-0.422-0.857l-0.78-0.713l-1.058-0.506l-1.179-0.311l-1.197-0.104
		l-2.677,0.155l-0.162-0.765l0.445-1.087l0.225-0.921l-0.283-0.437l-0.919-0.115l-0.405-0.408l-0.087-0.587l0.145-0.65l0.266-0.621
		l0.283-0.495l0.815-0.897l1.249-0.984l1.329-0.708l1.058-0.08l-0.081-0.995l0.197-0.776l0.555-0.477l1.017-0.075l-1.122-6.802
		l1.018-0.31l5.148-0.696l0.477,0.052l0.538,0.009l0.896-0.069l0.364-0.497l0.208-0.659l0.884-7.961l3.775-12.801l1.442,0.428
		l1.335-0.423l6.769-3.199l1.399-0.88l0.494-0.609l0.373-0.236l0.321-0.083l0.278,0.086l0.251,0.121l0.217,0.17l0.182,0.19l1,1.311
		l0.182,0.19l1.717,1.296l1.885,0.796l0.286,0.078l0.789,0.336l0.234,0.144l0.991,0.888l2.428,3.682l1.139,2.291l0.278,0.868
		l0.121,0.242l0.165,0.207l0.416,0.368l0.243,0.147l2.422,0.954l0.234,0.147l0.798,0.693l0.688,0.842l0.356,0.359l0.165,0.095
		l0.104-0.043l0.321-0.42l0.156-0.115l0.321-0.155l0.59-0.132l0.711-0.046l0.792,0.057l0.191-0.017l0.217-0.141l0.208-0.193
		l0.321-0.204l0.304-0.02l0.303,0.029l0.607,0.138l0.286,0.104l0.514,0.233l0.937,0.575l0.806,0.31l0.243,0.135l0.442,0.313
		l0.165,0.155l0.254,0.299l0.139,0.138l0.208,0.144l0.277,0.103l0.616,0.15l0.538,0.204l0.911,0.63l0.243,0.124l0.289,0.052
		l0.312-0.02l1.63-0.256l0.356,0.006l0.321,0.052l0.306,0.081l1.647,0.65l2.691,0.227l0.217,0.147l0.104,0.25l-0.139,0.417
		l-0.052,0.27v0.161l0.139,0.103l0.165,0.02l0.243-0.017l0.841-0.279l0.26-0.121l0.225-0.15l0.246-0.124l0.277-0.075l0.971-0.078
		l0.269-0.103l0.243-0.147l0.841-0.667l0.234-0.144l0.277-0.098l0.332-0.066l0.347-0.009l0.988,0.129l0.33-0.003l0.312-0.04
		l0.278-0.101l0.592-0.132l0.321,0.012l0.277,0.083l0.538,0.221l0.277,0.06l0.304-0.023l0.234-0.124l0.564-0.607l0.382-0.348
		l0.191-0.118l0.159-0.052h0.26l0.252,0.075l0.46,0.288l0.26,0.109l0.303,0.072l0.581,0.017l0.095-0.086l0.009-0.124l-23.05-33.741
		l-0.078-0.236l0.269-0.089l0.85,0.236l0.896,0.141l0.676,0.017l0.702-0.081l0.304-0.095l0.269-0.112l0.991-0.577l0.199-0.164
		l1.093-1.586l0.182-0.187l0.46-0.308l0.26-0.109l0.922-0.236l0.286-0.106l0.243-0.121l0.598-0.48l0.226-0.233l10.197-20.281
		l0.251-1.195l0.095-1.54l-1.422-8.635l-0.043-0.75l0.139-0.75l0.581-0.744l1.26-1.275l0.214-0.474l0.081-0.316l-0.202-30.04
		l-0.399-1.229l-6.639-14.392l-25.438-43.592l-0.029-0.721l0.546,0.103l0.52-0.011l0.509-0.224l1.269,0.551l1.674-0.772l2.818-2.056
		l1.52-0.023l3.301,1.1l1.324-0.319l0.786,0.393l0.879,0.037l0.714-0.129l0.295-0.112l0.286,0.456l0.673,0.385l1.367,0.488
		l10.518,1.55l0.697-0.233l0.436-0.56l0.353-0.689l0.425-0.62l0.598-0.356l0.887-0.293l1.778-0.319h1.72l0.436,0.126l0.269,0.27
		l0.208,0.273l0.249,0.124l0.682,0.554l2.963,3.62l4.792,0.189l1.023,0.485l1.046-0.112l1.101-0.25l1.202,0.066l0.885,0.448
		l0.5,0.514l0.624,0.416l1.662,0.267l0.431,0.235l0.344,0.304l0.139,0.299l0.321,0.106l2.003,0.445l0.717,0.336l0.884,0.551
		l0.752,0.637l0.5,0.881l0.789,0.543l0.301,0.468l0.642,1.547l0.598,0.307l0.83-0.112l0.515,0.187l0.214,0.287l0.569,1.011
		l0.174,0.218l0.954,0.566l0.737,1.326l2.171,7.959l0.373,0.841l0.668,0.158l0.408,0.439l0.205,0.655l0.055,0.815l0.341,0.043
		l1.399,1.668l0.205,0.359l0.665,0.261l1.465,0.146l0.89,0.35l0.694,0.491l0.5,0.603l0.298,0.781l0.104,1.005l1.702,2.501
		l0.078,0.37l-0.087,0.836l0.058,0.887l0.506,0.528l-0.451,0.778l0.119,0.833l0.714,1.838l0.153,1.754l0.168,0.557l0.445-0.072
		h0.382l-0.095,0.816l-0.087,0.333l-0.199,0.405l0.295,0.526l0.85,2.544l0.029,0.345l-0.029,1.137l0.728,1.174l0.33,0.913
		l0.355,1.588l1.986,3.948l0.801,0.793l-0.41,0.422l-0.315,0.471l-0.419,1.005l1.228,0.129l0.968,0.787l0.633,1.134l0.225,1.174
		l1.246,1.447l0.662,2.157l0.263,4.698l0.364,2.145l0.555,1.953l0.367,3.59l0.188,0.583l0.321,0.483l2.309,4.825l0.468,0.629
		l0.754,0.738l0.433,0.842l0.121,3.559l0.33,1.479l0.09,0.037l-0.147,0.448l-0.254,0.299l-0.246,0.207l-0.119,0.187l-0.038,0.951
		l0.384,2.465l-0.069,0.457l-0.321,0.598l0.043,0.428l0.257,0.517l0.598,0.635l0.257,0.402l0.445,2.637l0.353,0.779l-0.217,0.167
		l-0.379,0.414l-0.202,0.178l0.451,0.776l0.694,3.054l0.78,1.686l0.257,0.816l-0.24,0.569v0.345l0.234,1.037l3.064-1.169
		l43.266-19.232l0.356-0.063l29.797-1.87L604.05,402.983z M577.092,423.731l0.655-0.737l1.516,0.095l1.675,0.543l1.152,0.651
		l1.088,1.746l-0.419,1.176l-1.029,0.19l-0.756-1.212l0.05,0.611l-0.082,0.624l-0.218,0.466l-0.355,0.19l-0.164,0.072l-0.105,0.14
		l-0.164,0.14l-0.332,0.072l-0.387-0.131l-0.31-0.258l-0.2-0.258l-0.059-0.122l-0.737,0.109l-0.997,0.335l-2.085,1.077l-0.51-0.371
		l-0.492,0.09l-0.373,0.471l-0.155,0.76l0.3,0.434l0.601,0.353l0.428,0.394l-0.214,0.566l-0.696-0.009l-0.437-0.326l-0.246-0.543
		l-0.109-0.679l-1.243,0.258l0.005-1.262l0.664-1.751l0.765-1.249l1.02-0.566l1.315-0.389l1.147-0.579L577.092,423.731z"/>
	<path class="st4" d="M222.761,388.316l-9.061-5.028l-12.012-6.657l-12.007-6.662l-4.191-2.326l-2.075-0.161l-0.751-0.488
		l-0.11-1.453l-0.867-0.029l-0.231,0.029h-4.26l-0.318-11.307l-0.208-7.574l0.925-7.97l1.329-11.456l1.029-8.82l-0.058-2.147
		l2.635-6.548l0.18-0.371l0.841-1.413l0.113-0.267l0.069-0.302l0.017-0.316l-0.156-0.965v-0.342l0.052-0.313l0.095-0.264l0.13-0.207
		l0.121-0.138l0.564-0.5l0.668-0.462l0.52-0.25l1.052-0.37l0.121-0.112l0.121-0.19l0.13-0.442l0.035-0.241l0.069-1.803l0.191-1.2
		l0.225-0.896l0.104-0.23l0.113-0.181l0.989-1.036l1.676-1.022l0.364-0.109l0.52-0.023l0.989,0.075l0.488-0.069l0.364-0.115
		l0.191-0.189l0.191-0.221l0.147-0.233l0.425-1.068l0.13-0.218l0.147-0.166l0.104-0.101l0.39-0.276l0.26-0.124l0.295-0.092
		l0.324-0.063l0.425-0.023l0.46,0.023l3.003,0.577l0.659,0.069l0.321-0.026l0.286-0.103l0.471-0.29l0.529-0.238l0.312-0.08
		l0.408,0.06l0.486,0.215l1.006,1.011l0.208,0.316l0.191,0.548l0.156,1.019l0.029,1.074l0.069,0.313l0.095,0.276l0.139,0.233
		l3.046,3.055l0.13,0.253l-0.009,0.276l-0.173,0.89l0.165,0.342l0.442,0.382l1.014,0.402l1.474,0.91l0.289,0.264l0.121,0.238
		l0.061,0.293l-0.026,0.298l-0.13,0.62l-0.009,1.694l-0.199,0.568l-0.269,0.494l-0.098,0.267l-0.139,0.52l-0.026,0.204l0.052,0.227
		l0.113,0.215l0.156,0.241l0.237,0.198l0.347,0.215l0.408,0.069l0.477-0.032l0.694-0.218l1.512-0.635l0.928-0.241l0.338,0.017
		l1.269,0.359l1.327,0.64l0.382,0.034l0.477-0.054l1.269-0.439l0.451-0.112l0.434-0.017l1.145,0.241l0.835,0.052l1.318-0.344
		l0.434-0.04l0.277,0.014l0.286,0.072l0.277,0.112l0.225,0.155l0.792,0.746l0.425,0.336l0.243,0.135l0.26,0.106l0.624,0.112h0.728
		l1.061-0.115l1.483-0.014l2.648,0.319l0.347-0.026l0.624-0.155l0.272-0.121l0.728-0.439l0.277-0.109l0.33-0.063l0.329-0.026
		l0.329,0.009l0.26,0.109l0.225,0.155l0.546,0.586l0.217,0.115l0.26,0.049l0.246,0.009l0.243,0.098l0.624,0.488l0.243,0.138
		l0.269,0.1l0.295,0.043l0.295-0.052l0.572-0.201l0.26-0.121l0.246-0.146l0.173-0.201l0.382-0.79l0.139-0.241l0.156-0.207
		l0.226-0.155l0.277-0.103l0.329-0.04l0.338,0.023l0.618,0.138l0.824,0.31l0.937,0.583l0.251,0.115l0.286,0.086l0.312,0.023
		l0.295-0.06l0.269-0.126l0.462-0.284l0.208-0.106l0.165-0.026l0.243,0.02l0.26,0.066l0.26,0.106l0.225,0.146l0.347,0.413
		l0.139,0.256l0.208,0.574l0.251,1.659l0.182,0.207l0.211,0.172l0.243,0.141l1.092,0.436l0.225,0.224l0.165,0.316v0.672l0.078,0.37
		l0.156,0.27l2.535,2.001l0.173,0.204l0.165,0.235l0.104,0.258l0.052,0.511l-0.017,0.33l-0.269,1.84l-0.13,0.29l-0.225,0.25
		l-0.442,0.138l-0.382,0.026l-0.367-0.026l-0.303-0.057l-0.286-0.098l-0.251-0.121l-0.234-0.152l-0.39-0.347l-0.165-0.215
		l-0.121-0.273l-0.191-0.594l-0.139-0.232l-0.208-0.169l-0.286-0.086l-0.668-0.072l-0.306-0.086l-0.234-0.152l-0.191-0.204
		l-0.147-0.218l-0.329-0.818l-0.182-0.221l-0.208-0.175l-0.252-0.109l-0.286-0.032l-0.277,0.057l-0.488,0.241l-0.26,0.086
		l-0.295-0.011l-0.277-0.078l-0.26-0.138l-0.616-0.528l-0.659-0.459l-0.191-0.195l-0.173-0.224l-0.425-0.732l-0.173-0.189
		l-0.202-0.143l-0.347,0.212l-0.382,0.525l-1.301,2.46l-0.529,0.583l-0.246,0.141l-0.555,0.218l-0.251,0.132l-0.225,0.169
		l-0.173,0.218l-0.13,0.336l-0.095,0.436l-0.087,2.492l-0.156,0.936l0.017,0.319l-0.052,0.347l-0.113,0.37l-0.494,0.726
		l-0.226,0.233l-0.65,0.52l-0.194,0.187l-0.486,0.663l-0.069,0.155l-0.087,0.565l0.026,0.569l0.052,0.319l0.078,0.247l0.364,0.807
		l0.173,0.603l0.107,0.235l0.911,1.364l0.095,0.279l0.052,0.324l-0.226,1.866l0.009,0.29l0.147,0.804l0.035,0.109l0.069,0.175
		l0.408,0.634l0.095,0.212l0.052,0.224l0.659,5.992l-0.095,1.594l-0.355,0.881l0.017,0.689l0.121,0.646l1.121,3.081l0.179,0.726
		l0.029,0.672l-0.436,0.508l-0.633,0.497l-0.746,0.451l-0.72,0.563l-0.627,0.623l-0.676,1.674l-0.295,1.034l-0.234,0.474
		l-0.408,0.255l-0.642,0.253l-14.963,4.253l-0.416,0.043l-2.067-0.172l-0.295-0.066l-0.243-0.124l-0.26-0.1l-0.295-0.037
		l-0.295,0.069l-0.269,0.112l-1.147,0.758l-0.997,0.531l-0.919,0.706l-0.173,0.172l-0.165,0.258l-0.043,0.508l0.13,0.548
		l0.989,1.645l0.121,0.367l0.061,0.626l0.165,0.525l0.304,0.663l0.806,1.065l0.653,2.676l0.251,0.376l1.335,0.962l0.824,1.421
		l0.393,0.974l2.072,9.25L222.761,388.316z"/>
	<path class="st5" d="M213.878,249.102l0.065-0.012l0.316-0.536l0.493,0.565l1.613,1.419l0.078,1.031l1.032,1.556l5.737,5.978
		l0.269,0.189l0.272,0.098l0.312,0.075l0.338,0.046l0.295,0.069l0.243,0.132l0.156,0.264l0.069,0.373l-0.104,0.666l-0.026,0.537
		l0.035,0.534l0.243,0.681l0.217,0.359l0.243,0.267l0.477,0.281l0.26,0.106l0.306,0.077l0.321,0.049l2.055-0.244l1.182-0.396
		l1.552-0.356l0.321-0.04l0.321,0.017l0.289,0.086l0.283,0.121l0.289,0.075l0.303-0.012l0.26-0.115l0.2-0.172l0.98-1.309
		l0.191-0.195l0.199-0.175l0.234-0.146l0.28-0.115l0.303-0.083l1.752-0.21l3.211,0.106l0.303,0.06l0.277,0.098l0.46,0.29
		l0.523,0.261l0.277,0.103l0.598,0.152l1.084,0.388l0.382,0.198l0.159,0.1l0.145,0.146l0.116,0.155l0.087,0.172l0.286,0.778
		l0.997,1.338l0.139,0.293l0.087,0.876l-0.017,1.392l0.043,0.19l0.087,0.207l0.347,0.356l0.165,0.256l0.113,0.342l0.043,0.508
		l-0.026,0.388l-0.139,0.385l-0.208,0.327l-0.434,0.396l-0.243,0.172l-1.292,0.686l-0.225,0.221l-0.194,0.304l-0.303,0.999
		l-0.208,0.362l-0.39,0.356l-1.023,0.683l-0.182,0.078l-0.191,0.06l-0.286,0.031l-0.653-0.057l-0.277-0.095l-0.503-0.253
		l-0.295-0.083l-0.312-0.034l-0.347,0.009l-0.607,0.146l-0.974,0.52l-0.217,0.069l-0.182,0.035l-0.304,0.006l-0.321-0.029
		l-0.728-0.178l-0.165-0.012l-0.13,0.017l-0.217,0.075l-0.228,0.141l-0.231,0.224l-1.408,2.145l-0.416,0.373l-0.373,0.215
		l-0.329,0.032l-0.324-0.035l-0.277-0.08l-0.772-0.391l-0.304-0.08l-0.321-0.029l-0.338,0.043l-0.303,0.072l-0.286,0.1l-0.74,0.416
		l-0.217,0.477l-0.165,0.746l-0.121,2.383l0.087,0.405l0.636,0.402l2.315,1.103l0.217,0.155l0.191,0.19l0.15,0.224l0.746,1.579
		l0.191,0.982l0.564,1.731l0.061,0.313v0.342l-0.485,3.615l0.052,0.689l0.26,0.893l0.234,0.525l0.147,0.255l0.113,0.25l-0.017,0.431
		l-0.147,0.525l-0.468,1.082l-0.486,1.921l-0.208,0.557l-0.572,0.672l-1.624,1.252l-0.616,0.574l-0.243,0.281l-0.269,0.434
		l-0.393,0.864l-0.416,1.234l-1.058,1.286l-2.361,2.369l-0.928,1.381l-1.318,0.344l-0.835-0.052l-1.145-0.241l-0.434,0.017
		l-0.451,0.112l-1.269,0.439l-0.477,0.054l-0.382-0.034l-1.327-0.64l-1.269-0.359l-0.338-0.017l-0.928,0.241l-1.512,0.635
		l-0.694,0.218l-0.477,0.032l-0.408-0.069l-0.347-0.215l-0.237-0.198l-0.156-0.241l-0.113-0.215l-0.052-0.227l0.026-0.204
		l0.139-0.52l0.098-0.267l0.269-0.494l0.199-0.568l0.009-1.694l0.13-0.62l0.026-0.298l-0.061-0.293l-0.121-0.238l-0.289-0.264
		l-1.474-0.91l-1.014-0.402l-0.442-0.382l-0.165-0.342l0.173-0.89l0.009-0.276l-0.13-0.253l-3.046-3.055l-0.139-0.233l-0.095-0.276
		l-0.069-0.313l-0.029-1.074l-0.156-1.019l-0.191-0.548l-0.208-0.316l-1.006-1.011l-0.486-0.215l-0.408-0.06l-0.312,0.08
		l-0.529,0.238l-0.471,0.29l-0.286,0.103l-0.321,0.026l-0.659-0.069l-3.003-0.577l-0.46-0.023l-0.425,0.023l-0.324,0.063
		l-0.295,0.092l-0.26,0.124l-0.39,0.276l-0.104,0.101l-0.147,0.166l-0.13,0.218l-0.425,1.068l-0.147,0.233l-0.191,0.221
		l-0.191,0.189l-0.364,0.115l-0.488,0.069l-0.989-0.075l-0.52,0.023l-0.364,0.109l-1.676,1.022l-0.989,1.036l-0.113,0.181
		l-0.104,0.23l-0.225,0.896l-0.191,1.2l-0.069,1.803l-0.035,0.241l-0.13,0.442l-0.121,0.19l-0.121,0.112l-1.052,0.37l-0.52,0.25
		l-0.668,0.462l-0.564,0.5l-0.121,0.138l-0.13,0.207l-0.095,0.264l-0.052,0.313v0.342l0.156,0.965l-0.017,0.316l-0.069,0.302
		l-0.113,0.267l-0.841,1.413l-0.18,0.371l-2.635,6.548l-1.729-5.708l-1.74-5.725l0.173-1.097l3.255-4.306l0.476-0.63l4.495-5.956
		l2.012-1.55l0.48-0.735l0.156-1.131l-0.63-2.027l-0.058-1.022l0.248-0.505l0.965-1.137l0.393-0.58l0.173-0.471l1.347-5.484
		l0.046-0.189l0.96-1.711l1.653-1.126l2.272-0.815l1.809-0.913l1.347-1.436l0.902-2.383l0.221-1.279l0.12-0.697l0.463-0.488
		l3.59-1.786l0.96-0.867l0.803-2.237l1.613-2.082l1.451-3.561l0.329-1.137l0.017-1.218l0.018-1.275l0.289-1.183l0.468-1.131
		l0.549-0.993l1.145-1.114l0.925,0.215l0.913,0.514L213.878,249.102z"/>
	<path class="st3" d="M357.703,378.575l-1.422,1.396l-0.303,0.373l-0.65,0.551l-1.052,1.109l-0.208,0.158l-0.226,0.069l-0.503-0.003
		l-2.856-0.526l-0.702-0.014l-0.575-0.149l-0.295-0.046l-0.278,0.109l-0.217,0.224l-0.095,0.893l-0.139,0.414l-0.269,0.37
		l-2.561,1.712l-0.121,0.152l-0.052,0.184l0.139,0.29l0.824,1.077l-0.035,0.207l-0.127,0.238l-0.419,0.431l-0.442,0.549l-0.52,0.236
		l-1.543-0.215l-0.913-0.844l-0.59-0.411l-0.355-0.132l-0.598-0.112l-1.52,0.089l-0.312-0.034l-0.295-0.06l-1.763-0.724
		l-0.564-0.379l-0.503-0.439l-0.52-0.729l-0.434-0.781l-0.581-0.612l-1.867-1.223l1.494-1.608l0.945-1.367l0.321-0.316l0.381-0.215
		l0.425-0.106l0.694-0.33l0.341-0.276l1.786-2.228l0.564-0.436l0.454-0.227l0.304,0.046l2.263,0.729l0.304,0.032l0.338-0.075
		l0.515-0.198l0.434-0.112l0.962-0.135l0.303-0.149l0.252-0.181l1.52-1.631l0.295-0.043l0.278,0.043l0.407,0.241l0.13,0.06
		l0.546,0.169l0.191,0.112l0.095,0.178l-0.026,0.241l-0.538,0.916l-0.069,0.296l-0.017,0.301l0.095,0.267l0.208,0.19l0.948,0.58
		l0.937,0.428l0.425,0.126l0.85,0.115l0.798,0.017l0.471-0.046l0.382-0.086l0.72-0.264l1.624-0.316l0.728,0.425l0.564,0.451
		L357.703,378.575z"/>
	<path class="st6" d="M355.168,308.77l1.312,1.295l11.57,8.627l0.399,0.583l5.902,14.303l0.199,0.89l-0.017,4.261l0.061,0.482
		l0.182,0.5l1.786,2.113l0.46,0.801l0.017,1.444l-0.043,0.445l0.104,3.982l0.124,0.652l0.277,0.899l0.121,0.25l0.173,0.21
		l0.095,0.207l-0.095,0.253l-0.59,0.353l-7.405,2.751l-0.433,0.049l-0.338-0.049l-0.252-0.121l-1.104-0.801l-0.763-0.764
		l-0.434-0.31l-0.243-0.103l-0.26-0.052h-0.199l-0.252,0.037l-0.269,0.083l-0.477,0.215l-0.139,0.103l-0.142,0.307l-0.147,0.494
		l-0.546,4.003v0.594l0.121,0.396l2.084,1.711l0.173,0.195l0.156,0.227l0.13,0.255l0.598,2.108l0.512,1.005l0.165,0.224l0.191,0.19
		l0.263,0.112l0.303,0.037l0.321-0.052l0.286-0.098l0.269-0.121l0.936-0.577l0.243-0.1l0.225-0.009l0.2,0.147l0.168,0.212
		l0.092,0.276v0.379l-0.087,0.422l-0.214,0.548l-0.254,1.212l0.035,1.097l-1.535,2.136l-0.624,0.603l-0.13,0.086l-0.121-0.009
		l-1.763-1.229l-0.278-0.072l-0.286-0.014l-0.598,0.118l-0.269,0.103l-0.494,0.258l-0.376,0.149l-0.546,0.103l-0.659-0.029
		l-0.303-0.06l-0.321-0.017l-0.312,0.037l-0.26,0.118l-1.052,0.68l-0.382,0.359l-0.234,0.353l-0.13,0.434l0.035,0.718l0.191,0.818
		v0.396l-0.659,1.838l-1.153,2.358l-0.757,0.784l-0.824-0.988l-0.564-0.451l-0.728-0.425l-1.624,0.316l-0.72,0.264l-0.382,0.086
		l-0.471,0.046l-0.798-0.017l-0.85-0.115l-0.425-0.126l-0.937-0.428l-0.948-0.58l-0.208-0.19l-0.095-0.267l0.017-0.301l0.069-0.296
		l0.538-0.916l0.026-0.241l-0.095-0.178l-0.191-0.112l-0.546-0.169l-0.13-0.06l-0.407-0.241l-0.278-0.043l-0.295,0.043l-1.52,1.631
		l-0.252,0.181l-0.303,0.149l-0.962,0.135l-0.434,0.112l-0.515,0.198l-0.338,0.075l-0.304-0.032l-2.263-0.729l-0.304-0.046
		l-0.454,0.227l-0.564,0.436l-1.786,2.228l-0.341,0.276l-0.694,0.33l-0.425,0.106l-0.381,0.215l-0.321,0.316l-0.945,1.367
		l-1.494,1.608l-0.468-0.207l-0.945-0.546l-0.853-0.62l-0.234-0.124l-0.373-0.103l-6.544-0.976l-0.286-0.399l-0.095-0.744
		l2.127-6.226l0.173-0.233l0.286-0.06l1.015,0.009l0.321-0.06l0.269-0.089l0.243-0.204l0.15-0.336l0.069-0.6l-0.029-0.431
		l-0.356-1.645l-0.035-0.342l0.087-0.996l0.402-1.396l0.017-0.178l-0.012-0.095l-0.041-0.115l-0.775-1.014l-0.139-0.256
		l-0.399-1.172l-0.061-0.284l-0.009-0.402l0.113-0.973l-0.009-0.29l-0.061-0.258l-1.945-5.289l-0.416-2.286l0.061-0.474l0.477-1.456
		l0.069-0.534l-0.006-0.436l-0.723-3.127l-0.087-1.062l-0.364-1.668l-0.113-0.253l-0.217-0.095l-0.182-0.055l-0.243-0.04
		l-0.538-0.164l-0.546-0.227l-0.237-0.138l-0.199-0.181l-0.252-0.525l-0.156-0.244l-0.217-0.155l-0.269-0.078l-0.685,0.006
		l-0.702,0.072l-1.156,0.221l-0.147-0.006l-0.121-0.072l-0.087-0.23l-0.2-0.904l-0.225-0.557l-0.147-0.62l-0.043-1.447l-0.433-2.682
		l0.078-0.818l0.13-0.52l0.113-0.758l-0.026-0.327l-0.252-0.879l-0.113-0.258l-0.147-0.198l-0.191-0.095h-0.217l-1.676,0.322
		l-0.26-0.003l-0.182-0.152l-0.139-0.21l-0.113-0.264l-0.156-0.215l-0.217-0.121l-0.295-0.006l-0.312,0.034l-1.234,0.31
		l-0.659,0.083l-0.329-0.035l-0.278-0.077l-0.234-0.095l-0.147-0.092l-0.156-0.124l-2.769-6.035l-0.191-0.586l-0.113-0.652
		l-0.052-0.703l0.035-0.362l0.087-0.347l0.59-1.596l0.104-0.629l-0.113-2.819l0.165-1.341l0.191-0.686l0.165-0.388l0.251-1.074
		l0.815-1.332l0.13-0.261l0.74-2.254l0.277-0.531l0.746-0.686l0.529-0.322l2.283-0.91l0.191-0.146l0.147-0.241l0.156-0.551
		l0.13-0.247l0.338-0.149l0.642-0.052l1.252,0.08l0.919-0.155l0.512-0.161l2.934-1.783l0.208-0.172l0.121-0.261l0.182-0.569
		l0.182-0.172l0.263-0.057l0.399,0.212l0.269,0.204l1.361,1.364l0.173,0.224l0.121,0.279l0.225,0.904l0.269,0.333l0.489,0.276
		l1.093,0.316l0.52,0.227l0.364,0.212l1.286,1.404l0.269,0.126l0.356,0.04l0.581-0.195l0.373-0.169l0.798-0.465l0.278-0.06
		l0.298,0.043l0.286,0.238l0.121,0.253l-0.017,0.23l-0.069,0.146l-0.182,0.141l-4.922,2.98l-0.434,0.327l-0.286,0.345l-0.147,0.238
		l-0.113,0.279l-0.061,0.316l0.017,0.322l0.139,0.623l0.095,0.279l0.139,0.247l1.708,1.522l0.754,0.517l0.939,0.155l2.535,0.172
		l0.997,0.29l2.621-0.37l4.018-0.988l0.668-0.077l0.494,0.063l2.648,0.93l0.217,0.115l0.035,0.098l-0.113,0.324v0.683l-0.191,1.123
		l-0.121,0.388l-0.113,0.232l-0.156,0.213l-0.199,0.181l-0.451,0.224l-0.121,0.132l0.017,0.224l0.295,0.85l0.13,0.258l2.24,2.742
		l0.59,0.534l0.685,0.439l0.191,0.083l0.165,0.029l0.234,0.006l0.35-0.155l0.269-0.207l0.277-0.276l0.226-0.144l0.234,0.017
		l0.737,0.367l0.278,0.103l0.338-0.006l0.338-0.132l0.442-0.431l0.671-0.856l0.208-0.339l0.451-0.551l0.928-0.847l0.173-0.192
		l0.156-0.233l0.156-0.54l0.147-0.729l0.208-2.214l-0.069-0.494l-1.327-2.093l-0.104-0.273l-0.069-0.298l-0.035-0.698l0.173-0.422
		l0.303-0.477l1.477-1.372l0.702-0.97L355.168,308.77z"/>
</g>
<g id="Copyright">
	<text transform="matrix(1 0 0 1 681.6426 577.5916)" class="st7 st8"> Vemaps.com</text>
</g>
</svg>
